<svg width="28" height="27" viewBox="0 0 28 27" fill="none" xmlns="http://www.w3.org/2000/svg">
<path fill-rule="evenodd" clip-rule="evenodd" d="M8.14631 12.2101C8.14631 8.89638 10.94 6.21009 14.3863 6.21008C17.8326 6.21007 20.6263 8.89637 20.6263 12.2101V15.9325C20.6263 16.3754 20.8093 16.8002 21.135 17.1134L21.6663 17.6243V18.2101H7.10631L7.10631 17.6243L7.63756 17.1135L6.91507 16.4188L7.63756 17.1135C7.96331 16.8003 8.14631 16.3755 8.14631 15.9325V12.2101ZM14.3863 4.21008C9.79128 4.21009 6.06631 7.79181 6.06631 12.2101V15.7959L5.63552 16.2101L6.30088 16.8499L5.63552 16.2101C5.24545 16.5852 5.02631 17.0939 5.02631 17.6243V18.2101C5.02631 19.3147 5.95755 20.2101 7.10631 20.2101L10.2263 20.2101C10.2263 22.4193 12.0888 24.2101 14.3863 24.2101C16.6838 24.2101 18.5463 22.4193 18.5463 20.2101L21.6663 20.2101C22.8151 20.2101 23.7463 19.3147 23.7463 18.2101V17.6243C23.7463 17.0939 23.5272 16.5852 23.1371 16.2101L22.7063 15.7959V12.2101C22.7063 7.7918 18.9813 4.21007 14.3863 4.21008ZM14.3863 22.2101C13.2376 22.2101 12.3063 21.3147 12.3063 20.2101H16.4663C16.4663 21.3147 15.5351 22.2101 14.3863 22.2101Z" fill="#0C1022"/>
<path fill-rule="evenodd" clip-rule="evenodd" d="M19.8146 3.62194C20.1603 3.18086 20.8124 3.09274 21.2711 3.42512C22.8489 4.56836 24.0919 6.08502 24.8791 7.82739C25.108 8.33394 24.8664 8.92297 24.3396 9.14302C23.8128 9.36306 23.2002 9.1308 22.9713 8.62425C22.3273 7.19867 21.3103 5.95777 20.0193 5.02239C19.5606 4.69001 19.469 4.06301 19.8146 3.62194Z" fill="#0C1022"/>
<path fill-rule="evenodd" clip-rule="evenodd" d="M8.95815 3.62197C9.30382 4.06304 9.21218 4.69004 8.75346 5.02242C7.46251 5.9578 6.4455 7.1987 5.80146 8.62428C5.57262 9.13083 4.96003 9.36309 4.43321 9.14305C3.90639 8.923 3.66484 8.33397 3.89369 7.82742C4.68084 6.08505 5.92386 4.56839 7.50168 3.42515C7.9604 3.09277 8.61248 3.18089 8.95815 3.62197Z" fill="#0C1022"/>
</svg>
