<svg width="328" height="15" viewBox="0 0 328 15" fill="none" xmlns="http://www.w3.org/2000/svg">
<line y1="8.5" x2="149" y2="8.5" stroke="#C8D0D9"/>
<line x1="179" y1="8.5" x2="328" y2="8.5" stroke="#C8D0D9"/>
<path d="M168.419 7.704C168.419 8.976 167.995 10.04 167.147 10.896C166.291 11.76 165.243 12.192 164.003 12.192C162.755 12.192 161.707 11.76 160.859 10.896C160.011 10.04 159.587 8.976 159.587 7.704C159.587 6.432 160.011 5.368 160.859 4.512C161.707 3.648 162.755 3.216 164.003 3.216C165.251 3.216 166.299 3.652 167.147 4.524C167.995 5.38 168.419 6.44 168.419 7.704ZM160.715 7.704C160.715 8.696 161.027 9.516 161.651 10.164C162.283 10.812 163.067 11.136 164.003 11.136C164.939 11.136 165.719 10.812 166.343 10.164C166.975 9.524 167.291 8.704 167.291 7.704C167.291 6.704 166.975 5.884 166.343 5.244C165.719 4.596 164.939 4.272 164.003 4.272C163.067 4.272 162.283 4.596 161.651 5.244C161.027 5.892 160.715 6.712 160.715 7.704Z" fill="#A0A7AE"/>
</svg>
