<svg width="233" height="43" viewBox="0 0 233 43" fill="none" xmlns="http://www.w3.org/2000/svg">
<path d="M51.4457 32V11.952H58.6977C60.2844 11.952 61.647 12.4747 62.7857 13.52C63.9244 14.5467 64.4937 15.844 64.4937 17.412C64.4937 19.3907 63.5884 20.7813 61.7777 21.584V21.696C62.8044 22.032 63.6257 22.62 64.2417 23.46C64.8577 24.2813 65.1657 25.224 65.1657 26.288C65.1657 27.9307 64.5684 29.2933 63.3737 30.376C62.2164 31.4587 60.7884 32 59.0897 32H51.4457ZM54.0217 14.416V20.548H58.6977C59.6124 20.548 60.3777 20.24 60.9937 19.624C61.6097 18.9893 61.9177 18.2707 61.9177 17.468C61.9177 16.684 61.619 15.9747 61.0217 15.34C60.4244 14.724 59.687 14.416 58.8097 14.416H54.0217ZM54.0217 22.956V29.536H59.2017C60.135 29.536 60.9284 29.2093 61.5817 28.556C62.2164 27.9027 62.5337 27.128 62.5337 26.232C62.5337 25.3547 62.207 24.5893 61.5537 23.936C60.9004 23.2827 60.079 22.956 59.0897 22.956H54.0217ZM69.4987 27.8C69.4987 28.472 69.7787 29.032 70.3387 29.48C70.9174 29.928 71.5894 30.152 72.3547 30.152C73.4374 30.152 74.3987 29.7507 75.2387 28.948C76.0974 28.1453 76.5267 27.2027 76.5267 26.12C75.724 25.4853 74.604 25.168 73.1667 25.168C72.1214 25.168 71.244 25.42 70.5347 25.924C69.844 26.428 69.4987 27.0533 69.4987 27.8ZM72.8307 17.832C74.7347 17.832 76.2374 18.3453 77.3387 19.372C78.44 20.38 78.9907 21.7707 78.9907 23.544V32H76.5267V30.096H76.4147C75.3507 31.664 73.932 32.448 72.1587 32.448C70.6467 32.448 69.3774 32 68.3507 31.104C67.3427 30.208 66.8387 29.088 66.8387 27.744C66.8387 26.3253 67.3707 25.196 68.4347 24.356C69.5174 23.516 70.9547 23.096 72.7467 23.096C74.2774 23.096 75.5374 23.376 76.5267 23.936V23.348C76.5267 22.452 76.172 21.696 75.4627 21.08C74.7534 20.4453 73.9227 20.128 72.9707 20.128C71.5334 20.128 70.3947 20.7347 69.5547 21.948L67.2867 20.52C68.5374 18.728 70.3854 17.832 72.8307 17.832ZM81.8961 18.28H84.3601V20.184H84.4721C84.8641 19.512 85.4615 18.952 86.2641 18.504C87.0855 18.056 87.9348 17.832 88.8121 17.832C90.4921 17.832 91.7801 18.3173 92.6761 19.288C93.5908 20.24 94.0481 21.6027 94.0481 23.376V32H91.4721V23.544C91.4161 21.304 90.2868 20.184 88.0841 20.184C87.0575 20.184 86.1988 20.604 85.5081 21.444C84.8175 22.2653 84.4721 23.2547 84.4721 24.412V32H81.8961V18.28ZM103.344 32.448C101.309 32.448 99.6199 31.7573 98.2759 30.376C96.9506 28.9573 96.2879 27.212 96.2879 25.14C96.2879 23.0307 96.9506 21.2853 98.2759 19.904C99.6199 18.5227 101.309 17.832 103.344 17.832C104.744 17.832 105.967 18.1867 107.012 18.896C108.057 19.5867 108.841 20.548 109.364 21.78L107.012 22.76C106.284 21.0427 105.005 20.184 103.176 20.184C102 20.184 100.983 20.66 100.124 21.612C99.2839 22.564 98.8639 23.74 98.8639 25.14C98.8639 26.54 99.2839 27.716 100.124 28.668C100.983 29.62 102 30.096 103.176 30.096C105.061 30.096 106.387 29.2373 107.152 27.52L109.448 28.5C108.944 29.732 108.151 30.7027 107.068 31.412C106.004 32.1027 104.763 32.448 103.344 32.448ZM113.44 27.8C113.44 28.472 113.72 29.032 114.28 29.48C114.859 29.928 115.531 30.152 116.296 30.152C117.379 30.152 118.34 29.7507 119.18 28.948C120.039 28.1453 120.468 27.2027 120.468 26.12C119.665 25.4853 118.545 25.168 117.108 25.168C116.063 25.168 115.185 25.42 114.476 25.924C113.785 26.428 113.44 27.0533 113.44 27.8ZM116.772 17.832C118.676 17.832 120.179 18.3453 121.28 19.372C122.381 20.38 122.932 21.7707 122.932 23.544V32H120.468V30.096H120.356C119.292 31.664 117.873 32.448 116.1 32.448C114.588 32.448 113.319 32 112.292 31.104C111.284 30.208 110.78 29.088 110.78 27.744C110.78 26.3253 111.312 25.196 112.376 24.356C113.459 23.516 114.896 23.096 116.688 23.096C118.219 23.096 119.479 23.376 120.468 23.936V23.348C120.468 22.452 120.113 21.696 119.404 21.08C118.695 20.4453 117.864 20.128 116.912 20.128C115.475 20.128 114.336 20.7347 113.496 21.948L111.228 20.52C112.479 18.728 114.327 17.832 116.772 17.832ZM138.262 32.448C136.227 32.448 134.538 31.7573 133.194 30.376C131.869 28.9573 131.206 27.212 131.206 25.14C131.206 23.0307 131.869 21.2853 133.194 19.904C134.538 18.5227 136.227 17.832 138.262 17.832C139.662 17.832 140.885 18.1867 141.93 18.896C142.975 19.5867 143.759 20.548 144.282 21.78L141.93 22.76C141.202 21.0427 139.923 20.184 138.094 20.184C136.918 20.184 135.901 20.66 135.042 21.612C134.202 22.564 133.782 23.74 133.782 25.14C133.782 26.54 134.202 27.716 135.042 28.668C135.901 29.62 136.918 30.096 138.094 30.096C139.979 30.096 141.305 29.2373 142.07 27.52L144.366 28.5C143.862 29.732 143.069 30.7027 141.986 31.412C140.922 32.1027 139.681 32.448 138.262 32.448ZM149.058 32H146.482V18.28H148.946V20.52H149.058C149.319 19.792 149.851 19.176 150.654 18.672C151.475 18.1493 152.278 17.888 153.062 17.888C153.809 17.888 154.443 18 154.966 18.224L154.182 20.716C153.865 20.5853 153.361 20.52 152.67 20.52C151.699 20.52 150.85 20.912 150.122 21.696C149.413 22.48 149.058 23.3947 149.058 24.44V32ZM161.966 32.448C159.95 32.448 158.289 31.7573 156.982 30.376C155.676 28.9947 155.022 27.2493 155.022 25.14C155.022 23.0493 155.657 21.3133 156.926 19.932C158.196 18.532 159.82 17.832 161.798 17.832C163.833 17.832 165.448 18.4947 166.642 19.82C167.856 21.1267 168.462 22.9653 168.462 25.336L168.434 25.616H157.654C157.692 26.96 158.14 28.0427 158.998 28.864C159.857 29.6853 160.884 30.096 162.078 30.096C163.721 30.096 165.009 29.2747 165.942 27.632L168.238 28.752C167.622 29.9093 166.764 30.8147 165.662 31.468C164.58 32.1213 163.348 32.448 161.966 32.448ZM157.85 23.488H165.718C165.644 22.536 165.252 21.752 164.542 21.136C163.852 20.5013 162.918 20.184 161.742 20.184C160.772 20.184 159.932 20.4827 159.222 21.08C158.532 21.6773 158.074 22.48 157.85 23.488ZM164.654 11.952L162.638 15.536H160.398L161.854 11.952H164.654ZM177.115 30.096C178.384 30.096 179.42 29.6387 180.223 28.724C181.063 27.8093 181.483 26.6147 181.483 25.14C181.483 23.7027 181.063 22.5173 180.223 21.584C179.401 20.6507 178.365 20.184 177.115 20.184C175.883 20.184 174.847 20.6507 174.007 21.584C173.167 22.5173 172.747 23.7027 172.747 25.14C172.747 26.596 173.167 27.7813 174.007 28.696C174.847 29.6293 175.883 30.096 177.115 30.096ZM176.695 32.448C174.903 32.448 173.363 31.7387 172.075 30.32C170.805 28.8827 170.171 27.156 170.171 25.14C170.171 23.124 170.805 21.3973 172.075 19.96C173.363 18.5413 174.903 17.832 176.695 17.832C177.703 17.832 178.617 18.0467 179.439 18.476C180.279 18.9053 180.923 19.4747 181.371 20.184H181.483L181.371 18.28V11.952H183.947V32H181.483V30.096H181.371C180.923 30.8053 180.279 31.3747 179.439 31.804C178.617 32.2333 177.703 32.448 176.695 32.448ZM190.42 13.548C190.42 14.052 190.242 14.4813 189.888 14.836C189.533 15.1907 189.104 15.368 188.6 15.368C188.096 15.368 187.666 15.1907 187.312 14.836C186.957 14.4813 186.78 14.052 186.78 13.548C186.78 13.044 186.957 12.6147 187.312 12.26C187.666 11.9053 188.096 11.728 188.6 11.728C189.104 11.728 189.533 11.9053 189.888 12.26C190.242 12.6147 190.42 13.044 190.42 13.548ZM189.888 18.28V32H187.312V18.28H189.888ZM198.535 32.224C197.415 32.224 196.482 31.8787 195.735 31.188C195.007 30.4973 194.634 29.536 194.615 28.304V20.632H192.207V18.28H194.615V14.08H197.191V18.28H200.551V20.632H197.191V27.464C197.191 28.3787 197.368 29.004 197.723 29.34C198.078 29.6573 198.479 29.816 198.927 29.816C199.132 29.816 199.328 29.7973 199.515 29.76C199.72 29.704 199.907 29.6387 200.075 29.564L200.887 31.86C200.215 32.1027 199.431 32.224 198.535 32.224ZM202.081 25.14C202.081 23.0307 202.744 21.2853 204.069 19.904C205.413 18.5227 207.102 17.832 209.137 17.832C211.172 17.832 212.852 18.5227 214.177 19.904C215.521 21.2853 216.193 23.0307 216.193 25.14C216.193 27.268 215.521 29.0133 214.177 30.376C212.852 31.7573 211.172 32.448 209.137 32.448C207.102 32.448 205.413 31.7573 204.069 30.376C202.744 28.9947 202.081 27.2493 202.081 25.14ZM204.657 25.14C204.657 26.6147 205.086 27.8093 205.945 28.724C206.804 29.6387 207.868 30.096 209.137 30.096C210.406 30.096 211.47 29.6387 212.329 28.724C213.188 27.8093 213.617 26.6147 213.617 25.14C213.617 23.684 213.188 22.4987 212.329 21.584C211.452 20.6507 210.388 20.184 209.137 20.184C207.886 20.184 206.822 20.6507 205.945 21.584C205.086 22.4987 204.657 23.684 204.657 25.14ZM228.896 28.192C228.896 29.3867 228.373 30.3947 227.328 31.216C226.283 32.0373 224.967 32.448 223.38 32.448C221.999 32.448 220.785 32.0933 219.74 31.384C218.695 30.656 217.948 29.704 217.5 28.528L219.796 27.548C220.132 28.3693 220.617 29.0133 221.252 29.48C221.905 29.928 222.615 30.152 223.38 30.152C224.201 30.152 224.883 29.9747 225.424 29.62C225.984 29.2653 226.264 28.8453 226.264 28.36C226.264 27.4827 225.592 26.8387 224.248 26.428L221.896 25.84C219.227 25.168 217.892 23.88 217.892 21.976C217.892 20.7253 218.396 19.7267 219.404 18.98C220.431 18.2147 221.737 17.832 223.324 17.832C224.537 17.832 225.629 18.1213 226.6 18.7C227.589 19.2787 228.28 20.0533 228.672 21.024L226.376 21.976C226.115 21.3973 225.685 20.9493 225.088 20.632C224.509 20.296 223.856 20.128 223.128 20.128C222.456 20.128 221.849 20.296 221.308 20.632C220.785 20.968 220.524 21.3787 220.524 21.864C220.524 22.648 221.261 23.208 222.736 23.544L224.808 24.076C227.533 24.748 228.896 26.12 228.896 28.192Z" fill="#0C1022"/>
<path opacity="0.2" fill-rule="evenodd" clip-rule="evenodd" d="M22.5 32.75C29.2655 32.75 34.75 27.2655 34.75 20.5C34.75 13.7345 29.2655 8.25 22.5 8.25C15.7345 8.25 10.25 13.7345 10.25 20.5C10.25 27.2655 15.7345 32.75 22.5 32.75ZM22.5 38C32.165 38 40 30.165 40 20.5C40 10.835 32.165 3 22.5 3C12.835 3 4.99998 10.835 4.99998 20.5C4.99998 30.165 12.835 38 22.5 38Z" fill="#5428F1"/>
<path d="M22.5 38C32.165 38 40 30.165 40 20.5H34.75C34.75 27.2655 29.2655 32.75 22.5 32.75V38Z" fill="#5428F1"/>
<path d="M4.99998 20.5C4.99998 10.835 12.835 3 22.5 3V8.25C15.7345 8.25 10.25 13.7345 10.25 20.5H4.99998Z" fill="#5428F1"/>
</svg>
